<svg xmlns="http://www.w3.org/2000/svg" xmlns:xlink="http://www.w3.org/1999/xlink" width="120" zoomAndPan="magnify" viewBox="0 0 90 37.5" height="50" preserveAspectRatio="xMidYMid meet" version="1.0"><defs><g/><clipPath id="5f0c802ab2"><path d="M 1.949219 2.457031 L 29 2.457031 L 29 34.160156 L 1.949219 34.160156 Z M 1.949219 2.457031 " clip-rule="nonzero"/></clipPath><clipPath id="d8242b76d8"><path d="M 11 5 L 33.648438 5 L 33.648438 32 L 11 32 Z M 11 5 " clip-rule="nonzero"/></clipPath></defs><g clip-path="url(#5f0c802ab2)"><path fill="#324de6" d="M 20.269531 32.886719 C 12.058594 32.886719 5.402344 26.359375 5.402344 18.308594 C 5.402344 10.257812 12.058594 3.730469 20.269531 3.730469 C 23.300781 3.730469 26.121094 4.621094 28.472656 6.148438 C 25.667969 3.847656 22.054688 2.464844 18.109375 2.464844 C 9.183594 2.464844 1.945312 9.558594 1.945312 18.308594 C 1.945312 27.058594 9.183594 34.15625 18.109375 34.15625 C 22.054688 34.15625 25.667969 32.769531 28.472656 30.472656 C 26.121094 31.996094 23.300781 32.886719 20.269531 32.886719 Z M 20.269531 32.886719 " fill-opacity="1" fill-rule="nonzero"/></g><g clip-path="url(#d8242b76d8)"><path fill="#324de6" d="M 18.335938 6.128906 C 25.199219 6.128906 30.761719 11.582031 30.761719 18.308594 C 30.761719 25.035156 25.199219 30.488281 18.335938 30.488281 C 15.804688 30.488281 13.445312 29.746094 11.484375 28.472656 C 13.828125 30.394531 16.847656 31.550781 20.140625 31.550781 C 27.601562 31.550781 33.648438 25.621094 33.648438 18.308594 C 33.648438 10.996094 27.601562 5.070312 20.140625 5.070312 C 16.847656 5.070312 13.828125 6.226562 11.484375 8.144531 C 13.445312 6.871094 15.804688 6.128906 18.335938 6.128906 Z M 18.335938 6.128906 " fill-opacity="1" fill-rule="nonzero"/></g><g fill="#324de6" fill-opacity="1"><g transform="translate(8.460152, 27.085688)"><g><path d="M 17.921875 -10.265625 L 17.921875 -6.296875 C 17.441406 -4.117188 16.398438 -2.46875 14.796875 -1.34375 C 13.203125 -0.226562 11.421875 0.328125 9.453125 0.328125 C 6.972656 0.328125 4.863281 -0.59375 3.125 -2.4375 C 1.382812 -4.289062 0.515625 -6.53125 0.515625 -9.15625 C 0.515625 -11.820312 1.363281 -14.070312 3.0625 -15.90625 C 4.769531 -17.75 6.898438 -18.671875 9.453125 -18.671875 C 12.429688 -18.671875 14.785156 -17.628906 16.515625 -15.546875 L 13.78125 -12.546875 C 12.800781 -14.109375 11.4375 -14.890625 9.6875 -14.890625 C 8.40625 -14.890625 7.304688 -14.332031 6.390625 -13.21875 C 5.484375 -12.101562 5.03125 -10.75 5.03125 -9.15625 C 5.03125 -7.601562 5.484375 -6.273438 6.390625 -5.171875 C 7.304688 -4.066406 8.40625 -3.515625 9.6875 -3.515625 C 10.757812 -3.515625 11.691406 -3.835938 12.484375 -4.484375 C 13.273438 -5.128906 13.671875 -5.984375 13.671875 -7.046875 L 9.453125 -7.046875 L 9.453125 -10.265625 Z M 17.921875 -10.265625 "/></g></g></g><g fill="#ffffff" fill-opacity="1"><g transform="translate(34.465845, 26.302506)"><g><path d="M 1.65625 -1.109375 C 0.820312 -2.023438 0.40625 -3.144531 0.40625 -4.46875 C 0.40625 -5.800781 0.820312 -6.925781 1.65625 -7.84375 C 2.5 -8.769531 3.566406 -9.234375 4.859375 -9.234375 C 6.046875 -9.234375 7.023438 -8.859375 7.796875 -8.109375 L 7.796875 -8.96875 L 10.890625 -8.96875 L 10.890625 0 L 7.828125 0 L 7.828125 -1.015625 L 7.796875 -1.015625 C 7.023438 -0.160156 6.046875 0.265625 4.859375 0.265625 C 3.566406 0.265625 2.5 -0.191406 1.65625 -1.109375 Z M 4.28125 -6 C 3.882812 -5.601562 3.6875 -5.09375 3.6875 -4.46875 C 3.6875 -3.851562 3.878906 -3.347656 4.265625 -2.953125 C 4.648438 -2.566406 5.15625 -2.375 5.78125 -2.375 C 6.394531 -2.375 6.894531 -2.570312 7.28125 -2.96875 C 7.675781 -3.363281 7.875 -3.863281 7.875 -4.46875 C 7.875 -5.09375 7.671875 -5.601562 7.265625 -6 C 6.859375 -6.394531 6.363281 -6.59375 5.78125 -6.59375 C 5.1875 -6.59375 4.6875 -6.394531 4.28125 -6 Z M 4.28125 -6 "/></g></g></g><g fill="#ffffff" fill-opacity="1"><g transform="translate(46.401218, 26.302506)"><g><path d="M 10.28125 -7.84375 C 11.125 -6.925781 11.546875 -5.800781 11.546875 -4.46875 C 11.546875 -3.144531 11.125 -2.023438 10.28125 -1.109375 C 9.4375 -0.191406 8.367188 0.265625 7.078125 0.265625 C 5.890625 0.265625 4.910156 -0.160156 4.140625 -1.015625 L 4.109375 -1.015625 L 4.109375 0 L 1.046875 0 L 1.046875 -15.03125 L 4.140625 -15.03125 L 4.140625 -8.109375 C 4.910156 -8.859375 5.890625 -9.234375 7.078125 -9.234375 C 8.367188 -9.234375 9.4375 -8.769531 10.28125 -7.84375 Z M 7.671875 -2.953125 C 8.054688 -3.347656 8.25 -3.851562 8.25 -4.46875 C 8.25 -5.09375 8.046875 -5.601562 7.640625 -6 C 7.242188 -6.394531 6.75 -6.59375 6.15625 -6.59375 C 5.570312 -6.59375 5.078125 -6.394531 4.671875 -6 C 4.273438 -5.601562 4.078125 -5.09375 4.078125 -4.46875 C 4.078125 -3.863281 4.269531 -3.363281 4.65625 -2.96875 C 5.050781 -2.570312 5.550781 -2.375 6.15625 -2.375 C 6.78125 -2.375 7.285156 -2.566406 7.671875 -2.953125 Z M 7.671875 -2.953125 "/></g></g></g><g fill="#ffffff" fill-opacity="1"><g transform="translate(58.336592, 26.302506)"><g><path d="M 1.046875 0 L 1.046875 -8.96875 L 4.140625 -8.96875 L 4.140625 -7.671875 L 4.171875 -7.671875 C 4.203125 -7.722656 4.242188 -7.78125 4.296875 -7.84375 C 4.347656 -7.914062 4.457031 -8.039062 4.625 -8.21875 C 4.800781 -8.394531 4.988281 -8.550781 5.1875 -8.6875 C 5.382812 -8.832031 5.640625 -8.957031 5.953125 -9.0625 C 6.273438 -9.175781 6.597656 -9.234375 6.921875 -9.234375 C 7.265625 -9.234375 7.597656 -9.1875 7.921875 -9.09375 C 8.242188 -9 8.484375 -8.90625 8.640625 -8.8125 L 8.875 -8.671875 L 7.59375 -6.046875 C 7.207031 -6.378906 6.671875 -6.546875 5.984375 -6.546875 C 5.609375 -6.546875 5.285156 -6.460938 5.015625 -6.296875 C 4.742188 -6.128906 4.550781 -5.925781 4.4375 -5.6875 C 4.332031 -5.457031 4.253906 -5.257812 4.203125 -5.09375 C 4.160156 -4.9375 4.140625 -4.8125 4.140625 -4.71875 L 4.140625 0 Z M 1.046875 0 "/></g></g></g><g fill="#ffffff" fill-opacity="1"><g transform="translate(67.039109, 26.302506)"><g><path d="M 1.34375 -13.96875 C 1.707031 -14.332031 2.140625 -14.515625 2.640625 -14.515625 C 3.140625 -14.515625 3.566406 -14.332031 3.921875 -13.96875 C 4.285156 -13.601562 4.46875 -13.171875 4.46875 -12.671875 C 4.46875 -12.171875 4.285156 -11.738281 3.921875 -11.375 C 3.566406 -11.019531 3.140625 -10.84375 2.640625 -10.84375 C 2.140625 -10.84375 1.707031 -11.019531 1.34375 -11.375 C 0.976562 -11.738281 0.796875 -12.171875 0.796875 -12.671875 C 0.796875 -13.171875 0.976562 -13.601562 1.34375 -13.96875 Z M 1.046875 -8.96875 L 1.046875 0 L 4.140625 0 L 4.140625 -8.96875 Z M 1.046875 -8.96875 "/></g></g></g><g fill="#ffffff" fill-opacity="1"><g transform="translate(72.316529, 26.302506)"><g><path d="M 10.125 -4.0625 L 3.625 -4.0625 C 3.625 -3.425781 3.828125 -2.957031 4.234375 -2.65625 C 4.640625 -2.351562 5.082031 -2.203125 5.5625 -2.203125 C 6.0625 -2.203125 6.457031 -2.269531 6.75 -2.40625 C 7.039062 -2.539062 7.375 -2.804688 7.75 -3.203125 L 9.984375 -2.078125 C 9.046875 -0.515625 7.492188 0.265625 5.328125 0.265625 C 3.972656 0.265625 2.8125 -0.195312 1.84375 -1.125 C 0.882812 -2.050781 0.40625 -3.164062 0.40625 -4.46875 C 0.40625 -5.78125 0.882812 -6.898438 1.84375 -7.828125 C 2.8125 -8.765625 3.972656 -9.234375 5.328125 -9.234375 C 6.753906 -9.234375 7.910156 -8.820312 8.796875 -8 C 9.691406 -7.175781 10.140625 -6 10.140625 -4.46875 C 10.140625 -4.257812 10.132812 -4.125 10.125 -4.0625 Z M 3.703125 -5.765625 L 7.109375 -5.765625 C 7.046875 -6.234375 6.863281 -6.59375 6.5625 -6.84375 C 6.269531 -7.09375 5.890625 -7.21875 5.421875 -7.21875 C 4.910156 -7.21875 4.5 -7.082031 4.1875 -6.8125 C 3.882812 -6.550781 3.722656 -6.203125 3.703125 -5.765625 Z M 3.703125 -5.765625 "/></g></g></g><g fill="#ffffff" fill-opacity="1"><g transform="translate(82.853902, 26.302506)"><g><path d="M 1.046875 0 L 1.046875 -15.03125 L 4.140625 -15.03125 L 4.140625 0 Z M 1.046875 0 "/></g></g></g></svg>