<svg xmlns="http://www.w3.org/2000/svg" xmlns:xlink="http://www.w3.org/1999/xlink" width="120" zoomAndPan="magnify" viewBox="0 0 90 37.5" height="50" preserveAspectRatio="xMidYMid meet" version="1.0"><defs><g/><clipPath id="da396e77a9"><path d="M 0.871094 1.761719 L 29 1.761719 L 29 34.570312 L 0.871094 34.570312 Z M 0.871094 1.761719 " clip-rule="nonzero"/></clipPath><clipPath id="a5d005e8fe"><path d="M 10 4 L 33.679688 4 L 33.679688 32 L 10 32 Z M 10 4 " clip-rule="nonzero"/></clipPath></defs><g clip-path="url(#da396e77a9)"><path fill="#324de6" d="M 19.835938 33.253906 C 11.335938 33.253906 4.445312 26.496094 4.445312 18.164062 C 4.445312 9.832031 11.335938 3.078125 19.835938 3.078125 C 22.972656 3.078125 25.890625 4 28.320312 5.578125 C 25.417969 3.199219 21.679688 1.765625 17.597656 1.765625 C 8.359375 1.765625 0.871094 9.109375 0.871094 18.164062 C 0.871094 27.222656 8.359375 34.5625 17.597656 34.5625 C 21.679688 34.5625 25.417969 33.132812 28.320312 30.753906 C 25.890625 32.332031 22.972656 33.253906 19.835938 33.253906 Z M 19.835938 33.253906 " fill-opacity="1" fill-rule="nonzero"/></g><g clip-path="url(#a5d005e8fe)"><path fill="#324de6" d="M 17.832031 5.558594 C 24.933594 5.558594 30.691406 11.203125 30.691406 18.164062 C 30.691406 25.128906 24.933594 30.773438 17.832031 30.773438 C 15.210938 30.773438 12.773438 30.003906 10.738281 28.683594 C 13.167969 30.671875 16.289062 31.867188 19.699219 31.867188 C 27.421875 31.867188 33.679688 25.734375 33.679688 18.167969 C 33.679688 10.597656 27.417969 4.464844 19.699219 4.464844 C 16.289062 4.464844 13.164062 5.660156 10.738281 7.648438 C 12.773438 6.328125 15.210938 5.558594 17.832031 5.558594 Z M 17.832031 5.558594 " fill-opacity="1" fill-rule="nonzero"/></g><g fill="#324de6" fill-opacity="1"><g transform="translate(7.611694, 27.248726)"><g><path d="M 18.546875 -10.640625 L 18.546875 -6.515625 C 18.054688 -4.253906 16.984375 -2.546875 15.328125 -1.390625 C 13.671875 -0.234375 11.820312 0.34375 9.78125 0.34375 C 7.21875 0.34375 5.035156 -0.613281 3.234375 -2.53125 C 1.429688 -4.445312 0.53125 -6.765625 0.53125 -9.484375 C 0.53125 -12.242188 1.410156 -14.570312 3.171875 -16.46875 C 4.941406 -18.375 7.144531 -19.328125 9.78125 -19.328125 C 12.863281 -19.328125 15.300781 -18.25 17.09375 -16.09375 L 14.265625 -12.984375 C 13.253906 -14.609375 11.84375 -15.421875 10.03125 -15.421875 C 8.695312 -15.421875 7.554688 -14.835938 6.609375 -13.671875 C 5.671875 -12.515625 5.203125 -11.117188 5.203125 -9.484375 C 5.203125 -7.867188 5.671875 -6.488281 6.609375 -5.34375 C 7.554688 -4.207031 8.695312 -3.640625 10.03125 -3.640625 C 11.132812 -3.640625 12.097656 -3.972656 12.921875 -4.640625 C 13.742188 -5.304688 14.15625 -6.191406 14.15625 -7.296875 L 9.78125 -7.296875 L 9.78125 -10.640625 Z M 18.546875 -10.640625 "/></g></g></g><g fill="#ffffff" fill-opacity="1"><g transform="translate(34.524892, 26.438216)"><g><path d="M 1.71875 -1.140625 C 0.851562 -2.085938 0.421875 -3.25 0.421875 -4.625 C 0.421875 -6 0.851562 -7.160156 1.71875 -8.109375 C 2.582031 -9.066406 3.6875 -9.546875 5.03125 -9.546875 C 6.257812 -9.546875 7.269531 -9.160156 8.0625 -8.390625 L 8.0625 -9.28125 L 11.265625 -9.28125 L 11.265625 0 L 8.109375 0 L 8.109375 -1.046875 L 8.0625 -1.046875 C 7.269531 -0.171875 6.257812 0.265625 5.03125 0.265625 C 3.6875 0.265625 2.582031 -0.203125 1.71875 -1.140625 Z M 4.4375 -6.203125 C 4.019531 -5.796875 3.8125 -5.269531 3.8125 -4.625 C 3.8125 -3.988281 4.007812 -3.46875 4.40625 -3.0625 C 4.8125 -2.65625 5.335938 -2.453125 5.984375 -2.453125 C 6.617188 -2.453125 7.132812 -2.65625 7.53125 -3.0625 C 7.9375 -3.476562 8.140625 -4 8.140625 -4.625 C 8.140625 -5.269531 7.929688 -5.796875 7.515625 -6.203125 C 7.097656 -6.617188 6.585938 -6.828125 5.984375 -6.828125 C 5.367188 -6.828125 4.851562 -6.617188 4.4375 -6.203125 Z M 4.4375 -6.203125 "/></g></g></g><g fill="#ffffff" fill-opacity="1"><g transform="translate(46.876767, 26.438216)"><g><path d="M 10.640625 -8.109375 C 11.503906 -7.160156 11.9375 -6 11.9375 -4.625 C 11.9375 -3.25 11.503906 -2.085938 10.640625 -1.140625 C 9.773438 -0.203125 8.671875 0.265625 7.328125 0.265625 C 6.097656 0.265625 5.082031 -0.171875 4.28125 -1.046875 L 4.25 -1.046875 L 4.25 0 L 1.078125 0 L 1.078125 -15.5625 L 4.28125 -15.5625 L 4.28125 -8.390625 C 5.082031 -9.160156 6.097656 -9.546875 7.328125 -9.546875 C 8.671875 -9.546875 9.773438 -9.066406 10.640625 -8.109375 Z M 7.9375 -3.0625 C 8.34375 -3.46875 8.546875 -3.988281 8.546875 -4.625 C 8.546875 -5.269531 8.335938 -5.796875 7.921875 -6.203125 C 7.503906 -6.617188 6.988281 -6.828125 6.375 -6.828125 C 5.769531 -6.828125 5.257812 -6.617188 4.84375 -6.203125 C 4.425781 -5.796875 4.21875 -5.269531 4.21875 -4.625 C 4.21875 -4 4.414062 -3.476562 4.8125 -3.0625 C 5.21875 -2.65625 5.738281 -2.453125 6.375 -2.453125 C 7.019531 -2.453125 7.539062 -2.65625 7.9375 -3.0625 Z M 7.9375 -3.0625 "/></g></g></g><g fill="#ffffff" fill-opacity="1"><g transform="translate(59.228643, 26.438216)"><g><path d="M 1.078125 0 L 1.078125 -9.28125 L 4.28125 -9.28125 L 4.28125 -7.9375 L 4.328125 -7.9375 C 4.347656 -7.988281 4.382812 -8.050781 4.4375 -8.125 C 4.5 -8.195312 4.617188 -8.320312 4.796875 -8.5 C 4.972656 -8.6875 5.164062 -8.847656 5.375 -8.984375 C 5.582031 -9.128906 5.847656 -9.257812 6.171875 -9.375 C 6.492188 -9.488281 6.828125 -9.546875 7.171875 -9.546875 C 7.515625 -9.546875 7.851562 -9.5 8.1875 -9.40625 C 8.53125 -9.3125 8.78125 -9.21875 8.9375 -9.125 L 9.1875 -8.96875 L 7.859375 -6.265625 C 7.453125 -6.597656 6.894531 -6.765625 6.1875 -6.765625 C 5.800781 -6.765625 5.46875 -6.679688 5.1875 -6.515625 C 4.914062 -6.347656 4.722656 -6.140625 4.609375 -5.890625 C 4.492188 -5.648438 4.410156 -5.445312 4.359375 -5.28125 C 4.304688 -5.113281 4.28125 -4.984375 4.28125 -4.890625 L 4.28125 0 Z M 1.078125 0 "/></g></g></g><g fill="#ffffff" fill-opacity="1"><g transform="translate(68.234846, 26.438216)"><g><path d="M 1.390625 -14.453125 C 1.765625 -14.828125 2.210938 -15.015625 2.734375 -15.015625 C 3.253906 -15.015625 3.695312 -14.828125 4.0625 -14.453125 C 4.4375 -14.078125 4.625 -13.628906 4.625 -13.109375 C 4.625 -12.597656 4.4375 -12.15625 4.0625 -11.78125 C 3.695312 -11.40625 3.253906 -11.21875 2.734375 -11.21875 C 2.210938 -11.21875 1.765625 -11.40625 1.390625 -11.78125 C 1.015625 -12.15625 0.828125 -12.597656 0.828125 -13.109375 C 0.828125 -13.628906 1.015625 -14.078125 1.390625 -14.453125 Z M 1.078125 -9.28125 L 1.078125 0 L 4.28125 0 L 4.28125 -9.28125 Z M 1.078125 -9.28125 "/></g></g></g><g fill="#ffffff" fill-opacity="1"><g transform="translate(73.696429, 26.438216)"><g><path d="M 10.46875 -4.203125 L 3.75 -4.203125 C 3.75 -3.546875 3.957031 -3.0625 4.375 -2.75 C 4.800781 -2.4375 5.257812 -2.28125 5.75 -2.28125 C 6.269531 -2.28125 6.679688 -2.347656 6.984375 -2.484375 C 7.285156 -2.628906 7.628906 -2.90625 8.015625 -3.3125 L 10.328125 -2.15625 C 9.367188 -0.539062 7.765625 0.265625 5.515625 0.265625 C 4.117188 0.265625 2.921875 -0.210938 1.921875 -1.171875 C 0.921875 -2.128906 0.421875 -3.28125 0.421875 -4.625 C 0.421875 -5.976562 0.921875 -7.132812 1.921875 -8.09375 C 2.921875 -9.0625 4.117188 -9.546875 5.515625 -9.546875 C 6.984375 -9.546875 8.179688 -9.117188 9.109375 -8.265625 C 10.035156 -7.421875 10.5 -6.207031 10.5 -4.625 C 10.5 -4.414062 10.488281 -4.273438 10.46875 -4.203125 Z M 3.828125 -5.96875 L 7.359375 -5.96875 C 7.285156 -6.445312 7.09375 -6.816406 6.78125 -7.078125 C 6.476562 -7.335938 6.085938 -7.46875 5.609375 -7.46875 C 5.078125 -7.46875 4.65625 -7.328125 4.34375 -7.046875 C 4.03125 -6.773438 3.859375 -6.414062 3.828125 -5.96875 Z M 3.828125 -5.96875 "/></g></g></g><g fill="#ffffff" fill-opacity="1"><g transform="translate(84.601518, 26.438216)"><g><path d="M 1.078125 0 L 1.078125 -15.5625 L 4.28125 -15.5625 L 4.28125 0 Z M 1.078125 0 "/></g></g></g></svg>