<svg xmlns="http://www.w3.org/2000/svg" xmlns:xlink="http://www.w3.org/1999/xlink" width="100" zoomAndPan="magnify" viewBox="0 0 75 30.000001" height="40" preserveAspectRatio="xMidYMid meet" version="1.0"><defs><g/><clipPath id="024fd7ea9b"><path d="M 2.25 1.855469 L 24 1.855469 L 24 27.402344 L 2.25 27.402344 Z M 2.25 1.855469 " clip-rule="nonzero"/></clipPath><clipPath id="b11c6ba389"><path d="M 9 3 L 27.796875 3 L 27.796875 26 L 9 26 Z M 9 3 " clip-rule="nonzero"/></clipPath></defs><g clip-path="url(#024fd7ea9b)"><path fill="#324de6" d="M 17.015625 26.375 C 10.398438 26.375 5.03125 21.117188 5.03125 14.628906 C 5.03125 8.140625 10.398438 2.878906 17.015625 2.878906 C 19.457031 2.878906 21.730469 3.597656 23.625 4.828125 C 21.363281 2.972656 18.453125 1.859375 15.273438 1.859375 C 8.082031 1.859375 2.25 7.574219 2.25 14.628906 C 2.25 21.679688 8.082031 27.398438 15.273438 27.398438 C 18.453125 27.398438 21.363281 26.28125 23.625 24.429688 C 21.730469 25.660156 19.457031 26.375 17.015625 26.375 Z M 17.015625 26.375 " fill-opacity="1" fill-rule="nonzero"/></g><g clip-path="url(#b11c6ba389)"><path fill="#324de6" d="M 15.457031 4.8125 C 20.988281 4.8125 25.46875 9.207031 25.46875 14.628906 C 25.46875 20.050781 20.988281 24.445312 15.457031 24.445312 C 13.414062 24.445312 11.515625 23.84375 9.933594 22.816406 C 11.824219 24.367188 14.253906 25.296875 16.910156 25.296875 C 22.921875 25.296875 27.796875 20.519531 27.796875 14.628906 C 27.796875 8.734375 22.921875 3.957031 16.910156 3.957031 C 14.253906 3.957031 11.824219 4.890625 9.933594 6.4375 C 11.515625 5.410156 13.414062 4.8125 15.457031 4.8125 Z M 15.457031 4.8125 " fill-opacity="1" fill-rule="nonzero"/></g><g fill="#324de6" fill-opacity="1"><g transform="translate(7.497708, 21.700447)"><g><path d="M 14.4375 -8.28125 L 14.4375 -5.078125 C 14.0625 -3.316406 13.226562 -1.984375 11.9375 -1.078125 C 10.644531 -0.179688 9.203125 0.265625 7.609375 0.265625 C 5.617188 0.265625 3.921875 -0.476562 2.515625 -1.96875 C 1.109375 -3.46875 0.40625 -5.273438 0.40625 -7.390625 C 0.40625 -9.535156 1.09375 -11.347656 2.46875 -12.828125 C 3.84375 -14.304688 5.554688 -15.046875 7.609375 -15.046875 C 10.015625 -15.046875 11.914062 -14.207031 13.3125 -12.53125 L 11.109375 -10.109375 C 10.316406 -11.367188 9.21875 -12 7.8125 -12 C 6.769531 -12 5.878906 -11.546875 5.140625 -10.640625 C 4.410156 -9.742188 4.046875 -8.660156 4.046875 -7.390625 C 4.046875 -6.128906 4.410156 -5.050781 5.140625 -4.15625 C 5.878906 -3.269531 6.769531 -2.828125 7.8125 -2.828125 C 8.675781 -2.828125 9.425781 -3.085938 10.0625 -3.609375 C 10.695312 -4.128906 11.015625 -4.820312 11.015625 -5.6875 L 7.609375 -5.6875 L 7.609375 -8.28125 Z M 14.4375 -8.28125 "/></g></g></g><g fill="#ffffff" fill-opacity="1"><g transform="translate(28.880905, 21.220805)"><g><path d="M 1.390625 -0.921875 C 0.691406 -1.691406 0.34375 -2.632812 0.34375 -3.75 C 0.34375 -4.863281 0.691406 -5.804688 1.390625 -6.578125 C 2.085938 -7.347656 2.976562 -7.734375 4.0625 -7.734375 C 5.0625 -7.734375 5.882812 -7.421875 6.53125 -6.796875 L 6.53125 -7.515625 L 9.125 -7.515625 L 9.125 0 L 6.5625 0 L 6.5625 -0.84375 L 6.53125 -0.84375 C 5.882812 -0.132812 5.0625 0.21875 4.0625 0.21875 C 2.976562 0.21875 2.085938 -0.160156 1.390625 -0.921875 Z M 3.59375 -5.015625 C 3.257812 -4.691406 3.09375 -4.269531 3.09375 -3.75 C 3.09375 -3.226562 3.253906 -2.800781 3.578125 -2.46875 C 3.898438 -2.144531 4.320312 -1.984375 4.84375 -1.984375 C 5.351562 -1.984375 5.769531 -2.148438 6.09375 -2.484375 C 6.425781 -2.816406 6.59375 -3.238281 6.59375 -3.75 C 6.59375 -4.269531 6.421875 -4.691406 6.078125 -5.015625 C 5.742188 -5.347656 5.332031 -5.515625 4.84375 -5.515625 C 4.34375 -5.515625 3.925781 -5.347656 3.59375 -5.015625 Z M 3.59375 -5.015625 "/></g></g></g><g fill="#ffffff" fill-opacity="1"><g transform="translate(38.883708, 21.220805)"><g><path d="M 8.59375 -6.578125 C 9.300781 -5.804688 9.65625 -4.863281 9.65625 -3.75 C 9.65625 -2.632812 9.300781 -1.691406 8.59375 -0.921875 C 7.894531 -0.160156 7.003906 0.21875 5.921875 0.21875 C 4.929688 0.21875 4.113281 -0.132812 3.46875 -0.84375 L 3.4375 -0.84375 L 3.4375 0 L 0.875 0 L 0.875 -12.59375 L 3.46875 -12.59375 L 3.46875 -6.796875 C 4.113281 -7.421875 4.929688 -7.734375 5.921875 -7.734375 C 7.003906 -7.734375 7.894531 -7.347656 8.59375 -6.578125 Z M 6.421875 -2.46875 C 6.742188 -2.800781 6.90625 -3.226562 6.90625 -3.75 C 6.90625 -4.269531 6.738281 -4.691406 6.40625 -5.015625 C 6.070312 -5.347656 5.65625 -5.515625 5.15625 -5.515625 C 4.664062 -5.515625 4.25 -5.347656 3.90625 -5.015625 C 3.570312 -4.691406 3.40625 -4.269531 3.40625 -3.75 C 3.40625 -3.238281 3.566406 -2.816406 3.890625 -2.484375 C 4.222656 -2.148438 4.644531 -1.984375 5.15625 -1.984375 C 5.675781 -1.984375 6.097656 -2.144531 6.421875 -2.46875 Z M 6.421875 -2.46875 "/></g></g></g><g fill="#ffffff" fill-opacity="1"><g transform="translate(48.886511, 21.220805)"><g><path d="M 0.875 0 L 0.875 -7.515625 L 3.46875 -7.515625 L 3.46875 -6.421875 L 3.5 -6.421875 C 3.519531 -6.460938 3.550781 -6.507812 3.59375 -6.5625 C 3.632812 -6.625 3.726562 -6.726562 3.875 -6.875 C 4.019531 -7.019531 4.175781 -7.148438 4.34375 -7.265625 C 4.507812 -7.390625 4.722656 -7.5 4.984375 -7.59375 C 5.253906 -7.6875 5.523438 -7.734375 5.796875 -7.734375 C 6.078125 -7.734375 6.351562 -7.691406 6.625 -7.609375 C 6.90625 -7.535156 7.109375 -7.457031 7.234375 -7.375 L 7.4375 -7.265625 L 6.359375 -5.0625 C 6.035156 -5.332031 5.582031 -5.46875 5 -5.46875 C 4.6875 -5.46875 4.414062 -5.398438 4.1875 -5.265625 C 3.96875 -5.128906 3.8125 -4.960938 3.71875 -4.765625 C 3.632812 -4.578125 3.570312 -4.410156 3.53125 -4.265625 C 3.488281 -4.128906 3.46875 -4.023438 3.46875 -3.953125 L 3.46875 0 Z M 0.875 0 "/></g></g></g><g fill="#ffffff" fill-opacity="1"><g transform="translate(56.17992, 21.220805)"><g><path d="M 1.125 -11.703125 C 1.425781 -12.003906 1.785156 -12.15625 2.203125 -12.15625 C 2.628906 -12.15625 2.992188 -12.003906 3.296875 -11.703125 C 3.597656 -11.398438 3.75 -11.035156 3.75 -10.609375 C 3.75 -10.191406 3.597656 -9.832031 3.296875 -9.53125 C 2.992188 -9.226562 2.628906 -9.078125 2.203125 -9.078125 C 1.785156 -9.078125 1.425781 -9.226562 1.125 -9.53125 C 0.820312 -9.832031 0.671875 -10.191406 0.671875 -10.609375 C 0.671875 -11.035156 0.820312 -11.398438 1.125 -11.703125 Z M 0.875 -7.515625 L 0.875 0 L 3.46875 0 L 3.46875 -7.515625 Z M 0.875 -7.515625 "/></g></g></g><g fill="#ffffff" fill-opacity="1"><g transform="translate(60.602822, 21.220805)"><g><path d="M 8.484375 -3.390625 L 3.03125 -3.390625 C 3.03125 -2.867188 3.203125 -2.476562 3.546875 -2.21875 C 3.890625 -1.96875 4.257812 -1.84375 4.65625 -1.84375 C 5.070312 -1.84375 5.398438 -1.898438 5.640625 -2.015625 C 5.890625 -2.128906 6.171875 -2.347656 6.484375 -2.671875 L 8.359375 -1.75 C 7.578125 -0.4375 6.28125 0.21875 4.46875 0.21875 C 3.332031 0.21875 2.359375 -0.164062 1.546875 -0.9375 C 0.742188 -1.71875 0.34375 -2.65625 0.34375 -3.75 C 0.34375 -4.84375 0.742188 -5.78125 1.546875 -6.5625 C 2.359375 -7.34375 3.332031 -7.734375 4.46875 -7.734375 C 5.65625 -7.734375 6.617188 -7.390625 7.359375 -6.703125 C 8.109375 -6.015625 8.484375 -5.03125 8.484375 -3.75 C 8.484375 -3.570312 8.484375 -3.453125 8.484375 -3.390625 Z M 3.109375 -4.828125 L 5.953125 -4.828125 C 5.898438 -5.222656 5.75 -5.523438 5.5 -5.734375 C 5.25 -5.941406 4.925781 -6.046875 4.53125 -6.046875 C 4.101562 -6.046875 3.765625 -5.929688 3.515625 -5.703125 C 3.265625 -5.484375 3.128906 -5.191406 3.109375 -4.828125 Z M 3.109375 -4.828125 "/></g></g></g><g fill="#ffffff" fill-opacity="1"><g transform="translate(69.433988, 21.220805)"><g><path d="M 0.875 0 L 0.875 -12.59375 L 3.46875 -12.59375 L 3.46875 0 Z M 0.875 0 "/></g></g></g></svg>