<svg xmlns="http://www.w3.org/2000/svg" xmlns:xlink="http://www.w3.org/1999/xlink" width="40" zoomAndPan="magnify" viewBox="0 0 30 30.000001" height="40" preserveAspectRatio="xMidYMid meet" version="1.0"><defs><g/><clipPath id="dfb689ecd6"><path d="M 2.035156 1.292969 L 24 1.292969 L 24 27.421875 L 2.035156 27.421875 Z M 2.035156 1.292969 " clip-rule="nonzero"/></clipPath><clipPath id="3d690ee649"><path d="M 9 3 L 28.164062 3 L 28.164062 26 L 9 26 Z M 9 3 " clip-rule="nonzero"/></clipPath></defs><g clip-path="url(#dfb689ecd6)"><path fill="#324de6" d="M 17.136719 26.371094 C 10.367188 26.371094 4.878906 20.992188 4.878906 14.355469 C 4.878906 7.71875 10.367188 2.339844 17.136719 2.339844 C 19.632812 2.339844 21.957031 3.074219 23.894531 4.332031 C 21.582031 2.4375 18.605469 1.296875 15.355469 1.296875 C 7.996094 1.296875 2.035156 7.144531 2.035156 14.355469 C 2.035156 21.570312 7.996094 27.417969 15.355469 27.417969 C 18.605469 27.417969 21.582031 26.273438 23.894531 24.378906 C 21.957031 25.636719 19.636719 26.371094 17.136719 26.371094 Z M 17.136719 26.371094 " fill-opacity="1" fill-rule="nonzero"/></g><g clip-path="url(#3d690ee649)"><path fill="#324de6" d="M 15.542969 4.316406 C 21.199219 4.316406 25.78125 8.8125 25.78125 14.355469 C 25.78125 19.902344 21.199219 24.394531 15.542969 24.394531 C 13.453125 24.394531 11.511719 23.785156 9.894531 22.734375 C 11.824219 24.316406 14.3125 25.269531 17.027344 25.269531 C 23.175781 25.269531 28.160156 20.382812 28.160156 14.355469 C 28.160156 8.328125 23.175781 3.441406 17.027344 3.441406 C 14.3125 3.441406 11.824219 4.394531 9.894531 5.980469 C 11.511719 4.929688 13.453125 4.316406 15.542969 4.316406 Z M 15.542969 4.316406 " fill-opacity="1" fill-rule="nonzero"/></g><g fill="#324de6" fill-opacity="1"><g transform="translate(7.401713, 21.589913)"><g><path d="M 14.765625 -8.46875 L 14.765625 -5.1875 C 14.378906 -3.394531 13.523438 -2.035156 12.203125 -1.109375 C 10.890625 -0.179688 9.421875 0.28125 7.796875 0.28125 C 5.753906 0.28125 4.015625 -0.484375 2.578125 -2.015625 C 1.140625 -3.546875 0.421875 -5.390625 0.421875 -7.546875 C 0.421875 -9.742188 1.125 -11.597656 2.53125 -13.109375 C 3.9375 -14.628906 5.691406 -15.390625 7.796875 -15.390625 C 10.242188 -15.390625 12.1875 -14.53125 13.625 -12.8125 L 11.359375 -10.34375 C 10.554688 -11.632812 9.429688 -12.28125 7.984375 -12.28125 C 6.921875 -12.28125 6.015625 -11.816406 5.265625 -10.890625 C 4.515625 -9.972656 4.140625 -8.859375 4.140625 -7.546875 C 4.140625 -6.265625 4.515625 -5.164062 5.265625 -4.25 C 6.015625 -3.34375 6.921875 -2.890625 7.984375 -2.890625 C 8.867188 -2.890625 9.632812 -3.15625 10.28125 -3.6875 C 10.9375 -4.21875 11.265625 -4.925781 11.265625 -5.8125 L 7.796875 -5.8125 L 7.796875 -8.46875 Z M 14.765625 -8.46875 "/></g></g></g></svg>