<?xml version="1.0" encoding="UTF-8"?>
<svg xmlns="http://www.w3.org/2000/svg" xmlns:xlink="http://www.w3.org/1999/xlink" width="32px" height="32px" viewBox="0 0 32 32" version="1.1">
<defs>
<linearGradient id="linear0" gradientUnits="userSpaceOnUse" x1="2.983" y1="0.53" x2="2.983" y2="4.744" gradientTransform="matrix(4.88177,0,0,4.88177,0.00244088,0)">
<stop offset="0" style="stop-color:rgb(83.921569%,86.27451%,98.823529%);stop-opacity:1;"/>
<stop offset="0.92024" style="stop-color:rgb(53.333333%,60.784314%,100%);stop-opacity:1;"/>
<stop offset="1" style="stop-color:rgb(53.333333%,60.784314%,100%);stop-opacity:1;"/>
</linearGradient>
</defs>
<g id="surface1">
<path style=" stroke:none;fill-rule:nonzero;fill:rgb(53.333333%,60.784314%,100%);fill-opacity:1;" d="M 24.214844 1.414062 L 4.136719 1.414062 C 2.789062 1.414062 1.695312 2.519531 1.695312 3.855469 L 1.695312 26 C 1.695312 27.347656 2.800781 28.441406 4.136719 28.441406 L 17.367188 28.441406 C 17.21875 21.859375 19.464844 9.089844 24.222656 1.394531 Z M 24.214844 1.414062 "/>
<path style=" stroke:none;fill-rule:nonzero;fill:url(#linear0);" d="M 23.484375 2.132812 L 4.136719 2.132812 C 3.179688 2.132812 2.402344 2.914062 2.402344 3.867188 L 2.402344 24.394531 C 6.789062 22.710938 13.363281 21.261719 17.914062 21.328125 C 19.316406 14.804688 21.179688 8.390625 23.488281 2.132812 Z M 23.484375 2.132812 "/>
<path style=" stroke:none;fill-rule:nonzero;fill:rgb(19.607843%,30.196078%,90.196078%);fill-opacity:1;" d="M 28.902344 0.691406 C 27.527344 -0.527344 25.859375 -0.0390625 24.214844 1.414062 L 23.484375 2.128906 C 20.671875 5.105469 18.113281 10.632812 17.253906 14.855469 C 17.5625 15.523438 17.800781 16.21875 17.976562 16.933594 L 18.085938 17.421875 L 18.191406 17.921875 C 18.191406 17.921875 18.167969 17.824219 18.066406 17.53125 L 17.996094 17.335938 C 17.984375 17.300781 17.96875 17.261719 17.953125 17.226562 C 17.765625 16.804688 17.269531 15.898438 17.039062 15.507812 C 16.863281 16.027344 16.695312 16.550781 16.535156 17.078125 C 17.179688 18.257812 17.570312 20.277344 17.570312 20.277344 C 17.570312 20.277344 17.539062 20.148438 17.375 19.691406 C 17.230469 19.289062 16.515625 18.035156 16.351562 17.742188 C 16.058594 18.8125 15.945312 19.535156 16.046875 19.710938 C 16.242188 20.054688 16.4375 20.6875 16.609375 21.292969 C 16.875 22.367188 17.089844 23.453125 17.253906 24.546875 L 17.277344 24.847656 C 17.226562 26.070312 17.253906 27.292969 17.351562 28.507812 C 17.480469 30.039062 17.71875 31.351562 18.019531 32.054688 L 18.226562 31.941406 C 17.785156 30.554688 17.601562 28.742188 17.679688 26.648438 C 17.800781 23.453125 18.535156 19.59375 19.894531 15.578125 C 22.203125 9.460938 25.386719 4.589844 28.308594 2.265625 C 25.644531 4.667969 22.046875 12.4375 20.972656 15.3125 C 19.769531 18.535156 18.914062 21.5625 18.398438 24.457031 C 19.285156 21.742188 22.15625 20.570312 22.15625 20.570312 C 22.15625 20.570312 23.570312 18.832031 25.210938 16.347656 L 22.0625 17.1875 L 21.046875 17.636719 C 21.046875 17.636719 23.636719 16.0625 25.867188 15.34375 C 28.925781 10.523438 32.261719 3.675781 28.902344 0.6875 "/>
</g>
</svg>
